<svg width="370" height="1348" viewBox="0 0 370 1348" fill="none" xmlns="http://www.w3.org/2000/svg">
<path d="M210 24.9997L210 -0.000300943L160 0.000300943L160 25.0003L210 24.9997ZM167.338 1340.68C177.101 1350.44 192.931 1350.44 202.694 1340.68L361.791 1181.58C371.554 1171.81 371.553 1155.99 361.79 1146.22C352.027 1136.46 336.198 1136.46 326.435 1146.22L185.015 1287.65L43.5921 1146.23C33.8289 1136.46 17.9998 1136.46 8.2368 1146.23C-1.52619 1155.99 -1.526 1171.82 8.23723 1181.58L167.338 1340.68ZM160 25.0003L160.016 1323L210.016 1323L210 24.9997L160 25.0003Z" fill="#00B5FF"/>
</svg>
